# xmcd
#
# Track frame offsets: 
#        150
#        19701
#        43077
#        56230
#        70570
#        102314
#        114239
#        124470
#        146253
#        165045
#
# Disc length: 2361 seconds
#
# Revision: 0
# Processed by: cddbd v1.5.2PL0 Copyright (c) Steve Scherf et al.
# Submitted via: ExactAudioCopyFreeDBPlugin 1.0
#
DISCID=7e09370a
DTITLE=Aynsley Lister - Messin' With The Kid
DYEAR=1996
DGENRE=Blues
TTITLE0=Messin' With The Kid
TTITLE1=Voodoo Chile (Slight Return)
TTITLE2=I'm Tore Down
TTITLE3=Walkin' Blues
TTITLE4=Tin Pan Alley
TTITLE5=Stop messin' Round
TTITLE6=Scuttle Buttin'
TTITLE7=The Sky is Cryin'
TTITLE8=Continental Op
TTITLE9=Come Go home With Me
EXTD=
EXTT0=
EXTT1=
EXTT2=
EXTT3=
EXTT4=
EXTT5=
EXTT6=
EXTT7=
EXTT8=
EXTT9=
PLAYORDER=
